<svg xmlns="http://www.w3.org/2000/svg" xmlns:xlink="http://www.w3.org/1999/xlink" width="0" height="0" style="position:absolute">
	
		<symbol id="ba" viewBox="0 0 340 335">
			<title>BA</title><g transform="translate(-28 -33)" fill-rule="nonzero" fill="none"><path d="M63 234c-19.33 0-35-15.67-35-35s15.67-35 35-35 35 15.67 35 35-15.67 35-35 35zM333 234c-19.33 0-35-15.67-35-35s15.67-35 35-35 35 15.67 35 35-15.67 35-35 35zM198 103c-19.33 0-35-15.67-35-35s15.67-35 35-35 35 15.67 35 35-15.67 35-35 35zM198 368c-19.33 0-35-15.67-35-35s15.67-35 35-35 35 15.67 35 35-15.67 35-35 35z" fill="#229ED5"></path><g transform="rotate(-45 240.72 99.695)" fill="#229ED5"><path d="M20.9 160.314c-11.046 0-20-8.955-20-20 0-11.046 8.954-20 20-20 11.045 0 20 8.954 20 20 0 11.045-8.955 20-20 20zM260.9 160.314c-11.046 0-20-8.955-20-20 0-11.046 8.954-20 20-20 11.045 0 20 8.954 20 20 0 11.045-8.955 20-20 20zM140.9 40.314c-11.046 0-20-8.955-20-20 0-11.046 8.954-20 20-20 11.045 0 20 8.954 20 20 0 11.045-8.955 20-20 20zM140.9 280.314c-11.046 0-20-8.955-20-20 0-11.046 8.954-20 20-20 11.045 0 20 8.954 20 20 0 11.045-8.955 20-20 20z"></path></g><path d="M198.553 146l52.553 38.182-20.074 61.78h-64.959L146 184.181 198.553 146zm0 66.309l12.992 6.83-2.482-14.467 10.511-10.245-14.525-2.11-6.496-13.163-6.496 13.162-14.525 2.111 10.51 10.245-2.48 14.467 12.99-6.83z" fill="#229ED5"></path><path d="M198.827 162.162v-63.42M198.25 302.42V233" stroke="#229ED5" stroke-width="20"></path><path d="M123.796 189.71l6.499 20H84.29v-20h39.506zM272.244 189.91h30.516v20h-37.014l6.498-20z" fill="#229ED5"></path></g>
		</symbol>
	
		<symbol id="cv_bg" viewBox="0 0 692 325">
			<path opacity=".25" d="M357.515 4.027c58.193 33.015 114.469 68.697 168.828 107.044a2016.047 2016.047 0 0 1 151.804 118.331l5.213 4.494c6.152 5.323 8.872 13.452 7.115 21.269-14.406 64.097-31.964 127.091-52.675 188.983-19.996 59.757-42.993 118.669-68.99 176.735l-2.797 6.218c-3.311 7.327-10.431 12.351-18.63 13.146A2084.343 2084.343 0 0 1 346 650c-64.915 0-129.732-3.031-194.45-9.092l-6.934-.661c-8.198-.795-15.318-5.819-18.629-13.145C98.854 567.065 74.925 506.08 54.2 444.148a1924.169 1924.169 0 0 1-51.175-182.36l-1.5-6.622c-1.756-7.817.964-15.947 7.116-21.269a2018 2018 0 0 1 157.017-122.826c52.435-36.99 106.705-71.529 162.81-103.615l6.019-3.429c7.113-4.036 15.914-4.036 23.028 0z" stroke="url(#a)" stroke-width="2"></path><path opacity=".25" d="M354.762 65.434a1635.02 1635.02 0 0 1 135.796 86.098 1621.389 1621.389 0 0 1 122.104 95.175l4.193 3.615c4.948 4.281 7.136 10.819 5.722 17.106-11.587 51.555-25.709 102.222-42.368 152.002-16.084 48.064-34.582 95.447-55.492 142.151l-2.25 5.001c-2.663 5.893-8.39 9.934-14.985 10.574a1676.519 1676.519 0 0 1-318.388.532l-5.577-.532c-6.594-.64-12.321-4.681-14.984-10.573-21.825-48.289-41.072-97.34-57.742-147.153a1547.722 1547.722 0 0 1-41.162-146.674l-1.207-5.327c-1.412-6.287.775-12.826 5.724-17.107a1623.083 1623.083 0 0 1 126.296-98.79C242.618 121.78 286.27 94 331.398 68.192l4.841-2.757a18.833 18.833 0 0 1 18.523 0z" stroke="url(#b)" stroke-width="2"></path><path opacity=".25" d="M352.526 129.842a1240.682 1240.682 0 0 1 103.009 65.151 1229.542 1229.542 0 0 1 92.623 72.019l3.181 2.735c3.753 3.24 5.412 8.187 4.341 12.945a1170.22 1170.22 0 0 1-32.139 115.02c-12.201 36.37-26.233 72.226-42.095 107.567l-1.706 3.784c-2.02 4.459-6.365 7.517-11.367 8.001a1275.01 1275.01 0 0 1-241.516.403l-4.23-.403c-5.002-.484-9.347-3.542-11.367-8-16.555-36.541-31.155-73.658-43.8-111.352a1168.65 1168.65 0 0 1-31.224-110.989l-.916-4.031c-1.071-4.757.588-9.705 4.342-12.944a1230.602 1230.602 0 0 1 95.803-74.755 1241.267 1241.267 0 0 1 99.338-63.064l3.672-2.086a14.316 14.316 0 0 1 14.051-.001z" stroke="url(#c)" stroke-width="2"></path><path opacity=".25" d="M350.773 191.259a842.483 842.483 0 0 1 69.978 44.533 836.156 836.156 0 0 1 62.922 49.229l2.16 1.87c2.55 2.214 3.677 5.596 2.949 8.848a803.359 803.359 0 0 1-21.833 78.621 806.486 806.486 0 0 1-28.596 73.527l-1.159 2.587c-1.372 3.047-4.324 5.138-7.722 5.469a860.796 860.796 0 0 1-164.07.275l-2.874-.275c-3.398-.331-6.35-2.421-7.722-5.469a806.838 806.838 0 0 1-29.755-76.114 802.922 802.922 0 0 1-21.212-75.866l-.621-2.755c-.728-3.252.399-6.634 2.949-8.848a837.068 837.068 0 0 1 65.082-51.099 842.364 842.364 0 0 1 67.484-43.106l2.495-1.426a9.67 9.67 0 0 1 9.545-.001z" stroke="url(#d)" stroke-width="2"></path><path opacity=".25" d="M348.537 253.667a447.624 447.624 0 0 1 37.191 23.586 444.298 444.298 0 0 1 33.441 26.073l1.148.99c1.355 1.173 1.954 2.964 1.567 4.686a424.355 424.355 0 0 1-11.603 41.641 426.296 426.296 0 0 1-15.198 38.941l-.616 1.371c-.73 1.614-2.298 2.721-4.104 2.896a458.95 458.95 0 0 1-87.198.146l-1.528-.146c-1.806-.175-3.374-1.282-4.104-2.896a426.684 426.684 0 0 1-15.814-40.312 424.47 424.47 0 0 1-11.273-40.181l-.33-1.459c-.387-1.723.212-3.514 1.567-4.687a444.817 444.817 0 0 1 34.589-27.063 448.249 448.249 0 0 1 35.866-22.831l1.326-.755a5.158 5.158 0 0 1 5.073 0z" stroke="url(#e)" stroke-width="2"></path><defs><linearGradient id="a" x1="1" y1="1" x2="1" y2="650" gradientUnits="userSpaceOnUse"><stop stop-color="#fff"></stop><stop offset="1" stop-color="#fff" stop-opacity=".01"></stop></linearGradient><linearGradient id="b" x1="68" y1="585" x2="623" y2="585" gradientUnits="userSpaceOnUse"><stop stop-color="#fff"></stop><stop offset="1" stop-color="#fff" stop-opacity=".01"></stop></linearGradient><linearGradient id="c" x1="556" y1="523" x2="556" y2="128" gradientUnits="userSpaceOnUse"><stop stop-color="#fff"></stop><stop offset="1" stop-color="#fff" stop-opacity=".01"></stop></linearGradient><linearGradient id="d" x1="489" y1="190" x2="203" y2="190" gradientUnits="userSpaceOnUse"><stop stop-color="#fff"></stop><stop offset="1" stop-color="#fff" stop-opacity=".01"></stop></linearGradient><linearGradient id="e" x1="270" y1="253" x2="270" y2="396" gradientUnits="userSpaceOnUse"><stop stop-color="#fff"></stop><stop offset="1" stop-color="#fff" stop-opacity=".01"></stop></linearGradient></defs>
		</symbol>
	
		<symbol id="icon_2" viewBox="0 0 22 16">
			<path d="M20.735.493a.75.75 0 0 0-.515.227L7.25 13.69 1.78 8.22A.75.75 0 1 0 .72 9.28l6 6a.75.75 0 0 0 1.06 0l13.5-13.5a.75.75 0 0 0-.545-1.287z" fill="#FFBF00"></path>
		</symbol>
	
		<symbol id="left_arr" viewBox="0 0 16 16">
			<path d="M11.354 1.646a.5.5 0 0 1 0 .708L5.707 8l5.647 5.646a.5.5 0 0 1-.708.708l-6-6a.5.5 0 0 1 0-.708l6-6a.5.5 0 0 1 .708 0z"></path>
		</symbol>
	
		<symbol id="right_arr" viewBox="0 0 16 16">
			<path d="M4.646 1.646a.5.5 0 0 1 .708 0l6 6a.5.5 0 0 1 0 .708l-6 6a.5.5 0 0 1-.708-.708L10.293 8 4.646 2.354a.5.5 0 0 1 0-.708z"></path>
		</symbol>
	
</svg>
